<svg width="512" height="512" viewBox="0 0 512 512" fill="none" xmlns="http://www.w3.org/2000/svg">
<circle cx="256" cy="256" r="256" fill="#F7835A"/>
<circle cx="214.5" cy="105.5" r="22.5" fill="white"/>
<circle cx="312.5" cy="414.5" r="22.5" fill="white"/>
<circle cx="106.5" cy="314.5" r="22.5" fill="white"/>
<rect x="70.7072" y="217.686" width="135.117" height="45" rx="22.5" transform="rotate(-44.8726 70.7072 217.686)" fill="white"/>
<rect x="352.194" y="345.123" width="90.5032" height="45" rx="22.5" transform="rotate(-44.8726 352.194 345.123)" fill="white"/>
<rect x="176" y="419.329" width="341.86" height="45" rx="22.5" transform="rotate(-44.8726 176 419.329)" fill="white"/>
<rect x="111" y="380.329" width="135.117" height="45" rx="22.5" transform="rotate(-44.8726 111 380.329)" fill="white"/>
<rect x="225.054" y="267.996" width="223.939" height="45" rx="22.5" transform="rotate(-44.8726 225.054 267.996)" fill="white"/>
<rect x="125" y="264.329" width="270.434" height="45" rx="22.5" transform="rotate(-44.8726 125 264.329)" fill="white"/>
</svg>
